<?xml version="1.0" encoding="utf-8"?>
<!-- Generator: Adobe Illustrator 24.3.0, SVG Export Plug-In . SVG Version: 6.00 Build 0)  -->
<svg version="1.1" id="Capa_1" xmlns="http://www.w3.org/2000/svg" xmlns:xlink="http://www.w3.org/1999/xlink" x="0px" y="0px"
	 viewBox="0 0 280.4 174.6" style="enable-background:new 0 0 280.4 174.6;" xml:space="preserve">
<style type="text/css">
	.st0{fill:#FF8901;}
	.st1{fill:#FFFFFF;}
	.st2{fill:#333333;}
</style>
<g id="Capa_2_1_">
	<g id="Capa_1-2">
		<circle class="st0" cx="12.7" cy="162.5" r="12.1"/>
		<path class="st1" d="M18.6,168.1H7.3c-1,0-1.7-0.8-1.8-1.7c0,0,0,0,0,0V159c0-1,0.8-1.7,1.7-1.7c0,0,0,0,0,0h11.3
			c1,0,1.7,0.8,1.7,1.7c0,0,0,0,0,0v7.4C20.3,167.4,19.6,168.1,18.6,168.1C18.6,168.1,18.6,168.1,18.6,168.1z M18.5,158.4H7.4
			l5.6,4.1L18.5,158.4z M19.2,166.4v-7l-6.2,4.6l-6.2-4.6v7c0,0.3,0.3,0.6,0.6,0.6c0,0,0,0,0,0h11.3
			C18.9,166.9,19.2,166.7,19.2,166.4L19.2,166.4z"/>
		<circle class="st0" cx="12.7" cy="111.6" r="12.1"/>
		<path class="st1" d="M5.4,118.6l1.1-3.9c-2.1-3.6-0.8-8.1,2.8-10.2s8.1-0.8,10.2,2.8c2.1,3.6,0.8,8.1-2.8,10.2
			c-2.3,1.3-5,1.3-7.3,0.1L5.4,118.6z M9.6,116.2c2.9,1.9,6.8,1.1,8.6-1.8c1-1.5,1.3-3.4,0.8-5.1c-0.9-3.3-4.4-5.2-7.7-4.3
			c-3.3,0.9-5.2,4.4-4.3,7.7c0.2,0.7,0.5,1.3,0.9,1.9l-0.6,2.3L9.6,116.2z"/>
		<path class="st1" d="M15.1,112l1.6,0.8c0.2,0.2,0.1,0.9-0.1,1.1c-0.3,0.4-0.7,0.6-1.2,0.7c-0.4,0.1-0.8,0.1-1.1-0.1
			c-0.4-0.1-0.8-0.3-1.2-0.5c-1.4-0.8-2.6-1.9-3.3-3.3c-0.6-0.9-0.6-2.1,0.2-2.9c0.1-0.2,0.3-0.3,0.5-0.3c0.2,0,0.4,0,0.6,0
			c0.1,0,0.2,0.2,0.2,0.3l0.6,1.4c0.1,0.1,0.1,0.3,0,0.4c-0.1,0.2-0.3,0.4-0.5,0.6c-0.1,0.1-0.1,0.3,0,0.4c0.6,1,1.5,1.8,2.6,2.2
			c0.1,0.1,0.3,0,0.4-0.1l0.6-0.8C14.8,111.9,15,111.9,15.1,112z"/>
		<circle class="st0" cx="12.7" cy="62" r="12.1"/>
		<path class="st1" d="M22.2,62c0,5.2-4.2,9.5-9.5,9.5S3.2,67.2,3.2,62s4.2-9.5,9.5-9.5S22.2,56.8,22.2,62L22.2,62z M14.8,62.3
			c2.3,0.8,4,2.7,4.5,5.1c3-3.7,2.5-9.1-1.2-12.1s-9.1-2.5-12.1,1.2c-2.6,3.2-2.6,7.7,0,10.9c0.5-2.4,2.2-4.3,4.5-5.1
			C11.9,63.1,13.5,63.1,14.8,62.3z"/>
		<circle class="st1" cx="12.7" cy="58.6" r="3.4"/>
		<path class="st0" d="M5.7,2.1c-0.5,0-0.9,0.1-1.3,0.3C4,2.6,3.6,2.9,3.4,3.2C3.1,3.6,2.9,4.1,2.8,4.6C2.7,5.1,2.6,5.7,2.6,6.3
			C2.6,7,2.7,7.8,3,8.5c0.2,0.6,0.5,1,1,1.4c0.5,0.3,1.1,0.5,1.7,0.5c0.5,0,1-0.1,1.5-0.2C7.8,10,8.3,9.9,8.8,9.7v2.2
			c-0.5,0.2-1,0.4-1.6,0.5c-0.6,0.1-1.2,0.2-1.8,0.1c-1.1,0-2.2-0.2-3.1-0.8c-0.8-0.5-1.4-1.3-1.8-2.2C0.2,8.5,0,7.4,0,6.3
			c0-0.9,0.1-1.7,0.4-2.5C0.6,3,1,2.3,1.5,1.7c0.5-0.6,1.1-1,1.8-1.3C4,0.1,4.9,0,5.7,0c0.6,0,1.2,0.1,1.8,0.2
			c0.6,0.2,1.2,0.4,1.7,0.6L8.4,3C8,2.8,7.5,2.6,7.1,2.4C6.6,2.3,6.2,2.2,5.7,2.1z"/>
		<path class="st0" d="M19.6,7.7c0,0.7-0.1,1.4-0.3,2.1c-0.2,0.6-0.5,1.1-0.9,1.5C18,11.6,17.5,12,17,12.2c-0.6,0.2-1.2,0.3-1.9,0.3
			c-0.6,0-1.2-0.1-1.8-0.3c-0.5-0.2-1-0.5-1.4-0.9c-0.4-0.4-0.7-1-0.9-1.5c-0.2-0.7-0.3-1.4-0.3-2.1c0-0.9,0.2-1.8,0.5-2.6
			c0.3-0.7,0.9-1.3,1.6-1.6c0.7-0.4,1.6-0.6,2.4-0.5c0.8,0,1.6,0.2,2.3,0.5C18.1,3.7,18.7,4.3,19,5C19.4,5.8,19.6,6.7,19.6,7.7z
			 M13.2,7.7c0,0.5,0.1,1,0.2,1.5c0.1,0.4,0.3,0.7,0.6,0.9c0.3,0.2,0.7,0.3,1.1,0.3c0.4,0,0.8-0.1,1.1-0.3c0.3-0.2,0.5-0.6,0.6-0.9
			C17,8.7,17,8.2,17,7.7c0-0.5-0.1-1-0.2-1.5c-0.1-0.4-0.3-0.7-0.6-0.9c-0.3-0.2-0.7-0.3-1.1-0.3c-0.6,0-1.1,0.2-1.5,0.7
			C13.3,6.2,13.1,6.9,13.2,7.7z"/>
		<path class="st0" d="M27,2.9c0.9,0,1.7,0.2,2.4,0.8c0.7,0.7,1,1.6,0.9,2.6v6h-2.6V6.9c0-0.5-0.1-1-0.4-1.5
			c-0.3-0.4-0.7-0.5-1.1-0.5c-0.6-0.1-1.3,0.2-1.6,0.8c-0.3,0.7-0.5,1.5-0.4,2.3v4.4h-2.5V3h1.9L24,4.2h0.1c0.2-0.3,0.4-0.6,0.8-0.8
			c0.3-0.2,0.6-0.4,1-0.4C26.3,2.9,26.6,2.9,27,2.9z"/>
		<path class="st0" d="M36.8,10.5c0.3,0,0.5,0,0.8-0.1l0.8-0.2v1.9c-0.3,0.1-0.7,0.2-1,0.3c-0.4,0.1-0.9,0.1-1.3,0.1
			c-0.5,0-1-0.1-1.5-0.3c-0.4-0.2-0.8-0.5-1-0.9c-0.3-0.6-0.4-1.2-0.4-1.9V4.9h-1.3V3.9L33.3,3l0.7-2h1.6v2h2.6v1.9h-2.6v4.5
			c0,0.3,0.1,0.6,0.3,0.8C36.2,10.4,36.5,10.5,36.8,10.5z"/>
		<path class="st0" d="M44,2.8c1-0.1,2,0.2,2.9,0.8c0.7,0.6,1.1,1.5,1,2.5v6.2h-1.8L45.6,11h-0.1c-0.2,0.3-0.5,0.6-0.8,0.8
			c-0.3,0.2-0.6,0.4-1,0.5c-0.4,0.1-0.9,0.2-1.3,0.1c-0.5,0-1-0.1-1.5-0.3c-0.4-0.2-0.8-0.6-1-1c-0.3-0.5-0.4-1.1-0.4-1.6
			c-0.1-0.9,0.3-1.7,1-2.2c0.9-0.5,2-0.8,3.1-0.8h1.6V6.2c0.1-0.4-0.1-0.8-0.4-1.1c-0.3-0.2-0.6-0.4-1-0.3c-0.4,0-0.9,0.1-1.3,0.2
			c-0.4,0.1-0.9,0.3-1.3,0.5l-0.9-1.7c0.5-0.3,1.1-0.5,1.7-0.6C42.8,2.9,43.4,2.8,44,2.8z M45.4,8h-1c-0.6,0-1.2,0.1-1.7,0.4
			c-0.3,0.3-0.5,0.7-0.5,1.1c0,0.3,0.1,0.6,0.3,0.8c0.3,0.2,0.6,0.3,0.9,0.2c0.5,0,1-0.2,1.4-0.5c0.4-0.3,0.6-0.9,0.6-1.4L45.4,8z"
			/>
		<path class="st0" d="M54.3,12.5c-0.8,0-1.6-0.1-2.4-0.5c-0.7-0.3-1.2-0.9-1.5-1.6c-0.4-0.9-0.5-1.8-0.5-2.7c0-1,0.2-1.9,0.6-2.8
			c0.4-0.7,0.9-1.2,1.6-1.6c0.7-0.3,1.6-0.5,2.4-0.5c0.5,0,1.1,0,1.6,0.1c0.4,0.1,0.8,0.3,1.2,0.5l-0.8,2c-0.4-0.2-0.7-0.3-1.1-0.4
			c-0.3-0.1-0.7-0.1-1-0.2c-0.4,0-0.8,0.1-1.1,0.3c-0.3,0.2-0.5,0.6-0.7,0.9c-0.2,0.5-0.2,1-0.2,1.6c0,0.5,0.1,1,0.2,1.5
			c0.2,0.7,1,1.2,1.7,1.2c0.5,0,0.9-0.1,1.4-0.2c0.4-0.1,0.8-0.3,1.2-0.6v2.2c-0.4,0.2-0.8,0.4-1.2,0.5
			C55.4,12.4,54.8,12.5,54.3,12.5z"/>
		<path class="st0" d="M63.2,10.5c0.3,0,0.5,0,0.8-0.1l0.8-0.2v1.9c-0.3,0.1-0.7,0.2-1,0.3c-0.4,0.1-0.9,0.1-1.3,0.1
			c-0.5,0-1-0.1-1.5-0.3c-0.4-0.2-0.8-0.5-1-0.9c-0.3-0.6-0.4-1.2-0.4-1.9V4.9h-1.3V3.9L59.7,3l0.7-2h1.6v2h2.6v1.9h-2.6v4.5
			c0,0.3,0.1,0.6,0.3,0.8C62.6,10.4,62.9,10.5,63.2,10.5z"/>
		<path class="st0" d="M75.1,7.7c0,0.7-0.1,1.4-0.3,2.1c-0.2,0.6-0.5,1.1-0.9,1.5c-0.4,0.4-0.9,0.7-1.4,0.9
			c-0.6,0.2-1.2,0.3-1.9,0.3c-0.6,0-1.2-0.1-1.8-0.3c-0.5-0.2-1-0.5-1.4-0.9c-0.4-0.4-0.7-1-0.9-1.5c-0.2-0.7-0.3-1.4-0.3-2.1
			c0-0.9,0.2-1.8,0.6-2.6c0.3-0.7,0.9-1.3,1.6-1.6c0.7-0.4,1.6-0.6,2.4-0.5c0.8,0,1.6,0.2,2.3,0.5c0.7,0.4,1.2,0.9,1.6,1.6
			C74.9,5.8,75.1,6.7,75.1,7.7z M68.7,7.7c0,0.5,0.1,1,0.2,1.5c0.1,0.4,0.3,0.7,0.6,0.9c0.3,0.2,0.7,0.3,1.1,0.3
			c0.4,0,0.8-0.1,1.1-0.3c0.3-0.2,0.5-0.6,0.6-0.9c0.1-0.5,0.2-1,0.2-1.5c0-0.5-0.1-1-0.2-1.5c-0.1-0.4-0.3-0.7-0.6-0.9
			C71.3,5,71,4.9,70.6,4.9c-0.6,0-1.1,0.2-1.5,0.7C68.8,6.2,68.6,6.9,68.7,7.7z"/>
		<path class="st2" d="M50.3,67.9L49,64.5h-4.5l-1.2,3.4h-1.7L46,56.4h1.6L52,67.9H50.3z M48.6,63.1l-1.2-3.4l-0.2-0.5
			c-0.1-0.2-0.2-0.5-0.2-0.7l-0.2-0.6c0,0.2-0.1,0.4-0.2,0.7s-0.1,0.5-0.2,0.7s-0.1,0.4-0.2,0.5L45,63.1H48.6z M49.3,52.8V53
			c-0.1,0.2-0.3,0.4-0.5,0.5l-0.6,0.7c-0.2,0.2-0.5,0.5-0.7,0.7s-0.5,0.4-0.6,0.5h-1.1v-0.2c0.2-0.2,0.4-0.4,0.6-0.7
			s0.4-0.6,0.6-0.9c0.2-0.3,0.3-0.5,0.5-0.8H49.3z"/>
		<path class="st2" d="M57.6,59.1c1.5-0.2,2.9,0.8,3.1,2.3c0,0.3,0,0.5,0,0.8v5.6h-1.5v-5.4c0-0.5-0.1-1.1-0.5-1.5
			c-0.4-0.4-0.9-0.6-1.4-0.5c-0.7-0.1-1.4,0.2-1.9,0.8c-0.4,0.7-0.6,1.5-0.5,2.3V68h-1.6v-8.7h1.2l0.2,1.2h0.1
			c0.2-0.3,0.4-0.6,0.7-0.8c0.3-0.2,0.6-0.4,0.9-0.5C56.9,59.2,57.2,59.1,57.6,59.1z"/>
		<path class="st2" d="M65.8,71.8c-0.9,0.1-1.9-0.2-2.7-0.6c-0.6-0.4-1-1.1-0.9-1.8c0-0.5,0.2-1,0.5-1.4c0.4-0.4,0.9-0.7,1.4-0.8
			c-0.2-0.1-0.4-0.3-0.6-0.5c-0.2-0.2-0.3-0.5-0.2-0.7c0-0.3,0.1-0.6,0.3-0.8c0.2-0.3,0.5-0.5,0.8-0.7c-0.5-0.2-0.8-0.5-1.1-0.9
			c-0.3-0.5-0.4-1-0.4-1.5c0-0.6,0.1-1.1,0.4-1.6c0.3-0.4,0.7-0.8,1.1-1c0.6-0.2,1.2-0.4,1.8-0.3c0.2,0,0.3,0,0.5,0l0.5,0l0.4,0.1h3
			v0.9L69,60.4c0.2,0.2,0.3,0.4,0.4,0.7c0.4,1.1,0.1,2.2-0.8,3c-0.7,0.5-1.6,0.8-2.5,0.8c-0.2,0-0.5,0-0.7-0.1
			c-0.2,0.1-0.4,0.3-0.5,0.4c-0.1,0.2-0.2,0.3-0.2,0.5c0,0.1,0.1,0.3,0.2,0.4c0.1,0.1,0.3,0.2,0.4,0.2c0.2,0.1,0.5,0.1,0.7,0.1h1.5
			c0.8,0,1.5,0.2,2.2,0.6c0.5,0.4,0.8,1.1,0.8,1.7c0,0.9-0.4,1.8-1.2,2.2C68.1,71.6,66.9,71.8,65.8,71.8z M65.8,70.6
			c0.6,0,1.1-0.1,1.7-0.2c0.4-0.1,0.7-0.3,1-0.6c0.2-0.2,0.4-0.6,0.3-0.9c0-0.3-0.1-0.5-0.2-0.7c-0.2-0.2-0.4-0.3-0.7-0.3
			c-0.4-0.1-0.7-0.1-1.1-0.1h-1.4c-0.3,0-0.7,0-1,0.2c-0.3,0.1-0.5,0.3-0.6,0.5c-0.2,0.2-0.2,0.5-0.2,0.8c0,0.4,0.2,0.8,0.6,1
			C64.7,70.5,65.2,70.6,65.8,70.6L65.8,70.6z M66.1,63.8c0.5,0,0.9-0.1,1.3-0.5c0.3-0.4,0.5-0.8,0.4-1.3c0-0.5-0.1-1-0.4-1.4
			c-0.3-0.3-0.8-0.5-1.3-0.5c-0.5,0-0.9,0.1-1.3,0.5c-0.3,0.4-0.5,0.9-0.4,1.4c0,0.5,0.1,0.9,0.4,1.3C65.2,63.7,65.7,63.9,66.1,63.8
			L66.1,63.8z"/>
		<path class="st2" d="M75.5,59.1c0.7,0,1.3,0.1,1.9,0.5c0.5,0.3,1,0.8,1.2,1.4c0.3,0.6,0.4,1.3,0.4,2v0.9h-5.8
			c0,0.8,0.2,1.5,0.7,2.1c0.5,0.5,1.2,0.8,1.9,0.7c0.5,0,1,0,1.5-0.2c0.5-0.1,0.9-0.3,1.3-0.5v1.4c-0.4,0.2-0.9,0.3-1.3,0.4
			c-0.5,0.1-1,0.1-1.6,0.1c-0.8,0-1.5-0.2-2.2-0.5c-0.6-0.3-1.1-0.9-1.5-1.5c-0.4-0.8-0.5-1.6-0.5-2.4c0-0.8,0.1-1.7,0.5-2.4
			c0.3-0.6,0.8-1.2,1.3-1.5C74,59.3,74.8,59.1,75.5,59.1z M75.5,60.4c-0.6,0-1.1,0.2-1.5,0.6c-0.4,0.5-0.7,1.1-0.7,1.8h4.2
			c0-0.4-0.1-0.9-0.2-1.2c-0.1-0.3-0.4-0.6-0.7-0.8C76.3,60.4,75.9,60.3,75.5,60.4L75.5,60.4z"/>
		<path class="st2" d="M82.8,67.9h-1.6V55.8h1.6L82.8,67.9z"/>
		<path class="st2" d="M98,56.5l-4,11.4h-1.7l-4-11.4H90l2.5,7.3c0.1,0.3,0.2,0.5,0.3,0.8c0.1,0.3,0.2,0.6,0.2,0.8s0.1,0.5,0.2,0.8
			c0-0.2,0.1-0.5,0.2-0.8s0.1-0.6,0.2-0.9s0.2-0.6,0.3-0.8l2.5-7.3L98,56.5z"/>
		<path class="st2" d="M100.2,56c0.2,0,0.5,0.1,0.6,0.2c0.2,0.2,0.3,0.4,0.3,0.7c0,0.3-0.1,0.5-0.3,0.7c-0.4,0.3-0.9,0.3-1.3,0
			c-0.2-0.2-0.3-0.5-0.3-0.7c0-0.3,0.1-0.5,0.3-0.7C99.7,56.1,99.9,56,100.2,56z M100.9,59.3v8.6h-1.6v-8.6L100.9,59.3z"/>
		<path class="st2" d="M109.3,67.9h-6.4v-1l4.5-6.4h-4.2v-1.2h6v1.1l-4.5,6.3h4.6L109.3,67.9z"/>
		<path class="st2" d="M114.7,68.1c-0.7,0-1.4-0.1-2.1-0.5c-0.6-0.3-1.1-0.8-1.4-1.5c-0.7-1.6-0.7-3.4,0-5c0.3-0.6,0.8-1.1,1.4-1.5
			c0.7-0.3,1.4-0.5,2.1-0.5c0.4,0,0.9,0,1.3,0.1c0.3,0.1,0.7,0.2,1,0.4l-0.5,1.3c-0.3-0.1-0.6-0.2-0.9-0.3c-0.3-0.1-0.7-0.1-1-0.1
			c-0.5,0-1,0.1-1.4,0.4c-0.4,0.3-0.7,0.6-0.8,1.1c-0.2,0.6-0.3,1.1-0.3,1.7c0,0.6,0.1,1.1,0.3,1.7c0.2,0.4,0.4,0.8,0.8,1
			c0.4,0.3,0.8,0.4,1.3,0.4c0.4,0,0.8,0,1.2-0.2c0.3-0.1,0.7-0.2,1-0.4v1.4c-0.3,0.2-0.7,0.3-1,0.4C115.4,68,115,68.1,114.7,68.1z"
			/>
		<path class="st2" d="M122.3,59.2c0.9-0.1,1.7,0.2,2.4,0.7c0.6,0.6,0.9,1.4,0.8,2.2v5.8h-1.1l-0.3-1.2h0c-0.2,0.3-0.5,0.5-0.8,0.8
			c-0.3,0.2-0.6,0.4-0.9,0.5c-0.4,0.1-0.8,0.2-1.2,0.2c-0.5,0-1-0.1-1.4-0.3c-0.4-0.2-0.8-0.5-1-0.8c-0.2-0.4-0.4-0.9-0.3-1.4
			c0-0.8,0.3-1.6,1-2c0.9-0.5,2-0.8,3.1-0.7l1.5-0.1v-0.5c0.1-0.5-0.1-1-0.4-1.4c-0.4-0.3-0.8-0.4-1.2-0.4c-0.4,0-0.9,0.1-1.3,0.2
			c-0.4,0.1-0.8,0.3-1.2,0.5l-0.5-1.1c0.4-0.2,0.9-0.4,1.4-0.5C121.2,59.2,121.7,59.1,122.3,59.2z M123.9,63.7l-1.2,0
			c-0.7,0-1.5,0.1-2.1,0.5c-0.4,0.3-0.6,0.7-0.6,1.2c0,0.4,0.1,0.7,0.4,1c0.3,0.2,0.7,0.3,1.1,0.3c0.6,0,1.2-0.2,1.7-0.6
			c0.5-0.5,0.7-1.1,0.7-1.8L123.9,63.7z"/>
		<path class="st2" d="M126.8,59.3h1.7l1.8,5l0.3,0.8c0.1,0.2,0.1,0.5,0.2,0.7s0.1,0.4,0.1,0.7l0,0c0.1-0.3,0.1-0.6,0.3-1
			s0.2-0.8,0.4-1.2l1.8-5h1.7l-3.7,9.8c-0.2,0.5-0.4,1-0.7,1.4c-0.3,0.4-0.6,0.7-1,0.9c-0.4,0.2-0.9,0.3-1.4,0.3c-0.2,0-0.4,0-0.7,0
			c-0.2,0-0.3-0.1-0.5-0.1v-1.2c0.1,0,0.3,0.1,0.4,0.1c0.2,0,0.3,0,0.5,0c0.3,0,0.6-0.1,0.9-0.2c0.2-0.1,0.4-0.3,0.6-0.5
			c0.2-0.3,0.3-0.5,0.4-0.8l0.4-1L126.8,59.3z"/>
		<path class="st2" d="M139.7,59.2c0.9-0.1,1.7,0.2,2.4,0.7c0.6,0.6,0.9,1.4,0.8,2.2v5.8h-1.1l-0.3-1.2h-0.1
			c-0.2,0.3-0.5,0.5-0.8,0.8c-0.3,0.2-0.6,0.4-0.9,0.5c-0.4,0.1-0.8,0.2-1.2,0.2c-0.5,0-1-0.1-1.4-0.3c-0.4-0.2-0.8-0.5-1-0.8
			c-0.3-0.4-0.4-0.9-0.4-1.4c0-0.8,0.3-1.6,1-2c0.9-0.5,2-0.8,3.1-0.7l1.5-0.1v-0.5c0.1-0.5-0.1-1-0.4-1.4c-0.4-0.3-0.8-0.4-1.3-0.4
			c-0.4,0-0.9,0.1-1.3,0.2c-0.4,0.1-0.8,0.3-1.2,0.5l-0.5-1.1c0.4-0.2,0.9-0.4,1.4-0.5C138.5,59.2,139.1,59.1,139.7,59.2z
			 M141.3,63.7l-1.2,0c-0.7,0-1.5,0.1-2.1,0.5c-0.4,0.3-0.6,0.7-0.6,1.2c0,0.4,0.1,0.8,0.4,1c0.3,0.2,0.7,0.3,1.1,0.3
			c0.6,0,1.2-0.2,1.7-0.6c0.5-0.5,0.7-1.1,0.7-1.8L141.3,63.7z"/>
		<path class="st2" d="M42.7,111.7h3.2v1.2h-3.2v3.2h-1.2v-3.2h-3.2v-1.2h3.2v-3.3h1.2V111.7z"/>
		<path class="st2" d="M55.3,110.8c0.7,0,1.4,0.1,2,0.4c0.5,0.2,1,0.6,1.3,1.2c0.3,0.6,0.5,1.2,0.5,1.8c0,0.7-0.2,1.4-0.5,2
			c-0.3,0.6-0.9,1-1.5,1.3c-0.7,0.3-1.5,0.5-2.3,0.5c-0.6,0-1.1-0.1-1.7-0.2c-0.5-0.1-0.9-0.2-1.3-0.5V116c0.4,0.2,0.9,0.4,1.4,0.5
			c0.5,0.1,1,0.2,1.6,0.2c0.5,0,1-0.1,1.4-0.3c0.4-0.2,0.7-0.4,1-0.8c0.2-0.4,0.3-0.9,0.3-1.3c0-0.6-0.2-1.2-0.7-1.6
			c-0.6-0.4-1.3-0.6-2.1-0.6c-0.3,0-0.7,0-1,0.1c-0.4,0.1-0.7,0.1-0.9,0.2L52,112l0.4-5.5h5.8v1.4h-4.4l-0.3,3.1l0.7-0.1
			C54.6,110.8,54.9,110.8,55.3,110.8z"/>
		<path class="st2" d="M64.5,106.3c0.6,0,1.2,0.1,1.8,0.3c0.5,0.2,0.9,0.5,1.2,0.9c0.5,0.8,0.6,1.9,0.2,2.7
			c-0.2,0.3-0.5,0.7-0.8,0.9c-0.3,0.3-0.7,0.5-1.1,0.7c0.5,0.2,0.9,0.5,1.3,0.8c0.4,0.3,0.7,0.6,0.9,1c0.2,0.4,0.3,0.9,0.3,1.4
			c0,0.6-0.2,1.2-0.5,1.7c-0.3,0.5-0.8,0.8-1.3,1.1c-0.6,0.3-1.3,0.4-2,0.4c-0.7,0-1.4-0.1-2.1-0.4c-0.5-0.2-1-0.5-1.3-1
			c-0.3-0.5-0.5-1.1-0.5-1.7c0-0.5,0.1-1,0.3-1.4c0.2-0.4,0.5-0.7,0.9-1c0.4-0.3,0.8-0.5,1.2-0.7c-0.4-0.2-0.7-0.4-1-0.7
			c-0.3-0.3-0.5-0.6-0.7-0.9c-0.2-0.4-0.3-0.8-0.3-1.2c0-0.5,0.1-1,0.5-1.5c0.3-0.4,0.8-0.7,1.2-0.9
			C63.3,106.5,63.9,106.3,64.5,106.3z M62.2,115c0,0.5,0.2,1,0.6,1.3c1,0.7,2.4,0.7,3.4,0c0.4-0.3,0.6-0.8,0.6-1.3
			c0-0.4-0.1-0.7-0.3-1c-0.2-0.3-0.5-0.5-0.8-0.7c-0.4-0.2-0.8-0.4-1.2-0.6l-0.3-0.1c-0.4,0.2-0.8,0.4-1.1,0.6
			c-0.3,0.2-0.5,0.5-0.7,0.8C62.3,114.3,62.2,114.6,62.2,115z M64.5,107.6c-0.5,0-1,0.1-1.4,0.4c-0.4,0.3-0.6,0.7-0.5,1.2
			c0,0.3,0.1,0.6,0.3,0.9c0.2,0.3,0.4,0.5,0.7,0.7c0.3,0.2,0.7,0.4,1,0.5c0.3-0.1,0.7-0.3,1-0.5c0.3-0.2,0.5-0.4,0.7-0.7
			c0.2-0.3,0.3-0.6,0.2-0.9c0-0.5-0.2-0.9-0.5-1.2C65.5,107.7,65,107.5,64.5,107.6L64.5,107.6z"/>
		<path class="st2" d="M82.1,115.3h-1.6v2.6h-1.5v-2.6h-5.4v-1.2l5.3-7.7h1.6v7.6h1.6L82.1,115.3z M78.9,114v-3.3c0-0.3,0-0.5,0-0.8
			s0-0.5,0-0.7s0-0.4,0-0.6s0-0.3,0-0.5H79c-0.1,0.2-0.2,0.4-0.3,0.6c-0.1,0.2-0.2,0.4-0.4,0.6l-3.2,4.6H78.9z"/>
		<path class="st2" d="M90.8,117.9h-7.6v-1.2l3-3.1c0.6-0.6,1-1.1,1.4-1.5c0.3-0.4,0.6-0.8,0.9-1.3c0.2-0.4,0.3-0.9,0.3-1.3
			c0-0.5-0.2-1-0.5-1.4c-0.4-0.3-0.9-0.5-1.4-0.5c-0.5,0-1,0.1-1.4,0.3c-0.5,0.2-0.9,0.5-1.3,0.8l-0.8-1c0.3-0.3,0.6-0.5,1-0.7
			c0.4-0.2,0.8-0.4,1.2-0.5c0.5-0.1,0.9-0.2,1.4-0.2c0.6,0,1.3,0.1,1.8,0.4c0.5,0.2,0.9,0.6,1.2,1.1c0.3,0.5,0.4,1,0.4,1.6
			c0,0.6-0.1,1.2-0.4,1.7c-0.3,0.6-0.6,1.1-1,1.5c-0.4,0.5-1,1.1-1.6,1.6l-2.2,2.2v0.1h5.6L90.8,117.9z"/>
		<path class="st2" d="M100.4,115.3h-1.6v2.6h-1.5v-2.6h-5.4v-1.2l5.3-7.7h1.6v7.6h1.6V115.3z M97.2,114v-4c0-0.2,0-0.5,0-0.7
			s0-0.4,0-0.6s0-0.3,0-0.5h-0.1c-0.1,0.2-0.2,0.4-0.3,0.6c-0.1,0.2-0.2,0.4-0.4,0.6l-3.1,4.5H97.2z"/>
		<path class="st2" d="M113.2,117.9h-7.6v-1.2l3-3.1c0.6-0.6,1.1-1.1,1.4-1.5c0.3-0.4,0.6-0.8,0.8-1.3c0.2-0.4,0.3-0.9,0.3-1.3
			c0-0.5-0.2-1-0.5-1.4c-0.4-0.3-0.9-0.5-1.4-0.5c-0.5,0-1,0.1-1.4,0.3c-0.5,0.2-0.9,0.5-1.3,0.8l-0.8-1c0.3-0.3,0.6-0.5,1-0.7
			c0.4-0.2,0.8-0.4,1.2-0.5c0.5-0.1,0.9-0.2,1.4-0.2c0.6,0,1.3,0.1,1.8,0.4c0.5,0.2,0.9,0.6,1.2,1.1c0.3,0.5,0.4,1,0.4,1.6
			c0,0.6-0.1,1.2-0.4,1.7c-0.3,0.6-0.6,1.1-1,1.5c-0.5,0.6-1,1.1-1.6,1.6l-2.2,2.2v0.1h5.6L113.2,117.9z"/>
		<path class="st2" d="M118.6,106.3c0.6,0,1.2,0.1,1.8,0.3c0.5,0.2,0.9,0.5,1.2,0.9c0.3,0.4,0.5,1,0.4,1.5c0,0.4-0.1,0.8-0.3,1.2
			c-0.2,0.3-0.5,0.7-0.8,0.9c-0.3,0.3-0.7,0.5-1.1,0.7c0.4,0.2,0.9,0.5,1.3,0.8c0.4,0.3,0.7,0.6,0.9,1c0.2,0.4,0.4,0.9,0.3,1.4
			c0,0.6-0.1,1.2-0.5,1.7c-0.3,0.5-0.8,0.8-1.3,1.1c-0.6,0.3-1.3,0.4-2,0.4c-0.7,0-1.4-0.1-2.1-0.4c-0.5-0.2-1-0.5-1.3-1
			c-0.3-0.5-0.5-1.1-0.4-1.7c0-0.5,0.1-1,0.3-1.4c0.2-0.4,0.5-0.7,0.9-1c0.4-0.3,0.8-0.5,1.2-0.7c-0.4-0.2-0.7-0.4-1-0.7
			c-0.3-0.3-0.6-0.6-0.7-0.9c-0.2-0.4-0.3-0.8-0.3-1.2c0-0.5,0.1-1.1,0.5-1.5c0.3-0.4,0.7-0.7,1.2-0.9
			C117.4,106.5,118,106.3,118.6,106.3z M116.2,115c0,0.5,0.2,1,0.6,1.3c0.5,0.4,1.1,0.6,1.7,0.5c0.6,0,1.2-0.1,1.7-0.5
			c0.4-0.3,0.6-0.8,0.6-1.4c0-0.4-0.1-0.7-0.3-1c-0.2-0.3-0.5-0.5-0.8-0.7c-0.4-0.2-0.8-0.4-1.2-0.6l-0.3-0.1
			c-0.4,0.2-0.8,0.4-1.1,0.6c-0.3,0.2-0.5,0.5-0.7,0.8C116.3,114.3,116.2,114.6,116.2,115z M118.6,107.6c-0.5,0-1,0.1-1.4,0.4
			c-0.4,0.3-0.6,0.7-0.5,1.2c0,0.3,0.1,0.6,0.3,0.9c0.2,0.3,0.4,0.5,0.7,0.7c0.3,0.2,0.7,0.4,1,0.5c0.3-0.1,0.7-0.3,1-0.5
			c0.3-0.2,0.5-0.4,0.7-0.7c0.2-0.3,0.3-0.6,0.2-0.9c0-0.5-0.2-0.9-0.5-1.2C119.6,107.7,119.1,107.5,118.6,107.6L118.6,107.6z"/>
		<path class="st2" d="M127.6,110.8c0.7,0,1.4,0.1,2,0.4c0.5,0.2,1,0.6,1.3,1.2c0.3,0.6,0.5,1.2,0.5,1.8c0,0.7-0.2,1.4-0.5,2
			c-0.3,0.6-0.9,1-1.5,1.3c-0.7,0.3-1.5,0.5-2.3,0.5c-0.6,0-1.1-0.1-1.7-0.2c-0.5-0.1-0.9-0.2-1.3-0.5V116c0.4,0.2,0.9,0.4,1.4,0.5
			c0.5,0.1,1,0.2,1.6,0.2c0.5,0,1-0.1,1.4-0.3c0.4-0.2,0.7-0.4,0.9-0.8c0.2-0.4,0.3-0.9,0.3-1.3c0-0.6-0.2-1.2-0.7-1.6
			c-0.6-0.4-1.3-0.6-2.1-0.6c-0.3,0-0.7,0-1,0.1c-0.4,0.1-0.7,0.1-0.9,0.2l-0.7-0.4l0.4-5.5h5.8v1.4h-4.4L126,111l0.7-0.1
			C127,110.9,127.3,110.8,127.6,110.8z"/>
		<path class="st2" d="M144.8,111.3c0,0.7,0,1.3-0.1,2c-0.1,0.6-0.3,1.2-0.5,1.8c-0.2,0.6-0.6,1.1-1,1.5c-0.4,0.4-1,0.8-1.5,1
			c-0.7,0.3-1.5,0.4-2.2,0.4c-0.3,0-0.5,0-0.8,0c-0.2,0-0.5-0.1-0.7-0.1v-1.3c0.2,0.1,0.4,0.1,0.7,0.2c0.2,0,0.5,0,0.8,0
			c0.8,0,1.6-0.2,2.3-0.6c0.5-0.4,1-1,1.2-1.6c0.2-0.7,0.4-1.5,0.4-2.3h-0.1c-0.2,0.3-0.4,0.5-0.6,0.7c-0.3,0.2-0.6,0.4-0.9,0.5
			c-0.4,0.1-0.8,0.2-1.2,0.2c-0.6,0-1.2-0.1-1.7-0.4c-0.5-0.3-0.9-0.7-1.1-1.2c-0.3-0.6-0.4-1.2-0.4-1.9c0-0.7,0.1-1.4,0.4-2.1
			c0.3-0.6,0.7-1,1.3-1.3c0.6-0.3,1.3-0.5,2-0.5c0.5,0,1.1,0.1,1.6,0.3c0.5,0.2,0.9,0.5,1.2,0.9c0.4,0.5,0.7,1,0.8,1.6
			C144.7,109.8,144.8,110.6,144.8,111.3z M140.9,107.6c-0.6,0-1.2,0.2-1.6,0.6c-0.4,0.5-0.7,1.2-0.6,1.9c0,0.6,0.1,1.2,0.5,1.7
			c0.4,0.4,1,0.7,1.6,0.6c0.4,0,0.9-0.1,1.3-0.3c0.3-0.2,0.6-0.4,0.8-0.8c0.2-0.3,0.3-0.6,0.3-1c0-0.3,0-0.7-0.1-1
			c-0.1-0.3-0.2-0.6-0.4-0.9c-0.2-0.3-0.4-0.5-0.7-0.7C141.6,107.7,141.2,107.6,140.9,107.6z"/>
		<path class="st2" d="M154,117.9h-7.6v-1.2l3-3.1c0.6-0.6,1.1-1.1,1.4-1.5c0.3-0.4,0.6-0.8,0.9-1.3c0.2-0.4,0.3-0.9,0.3-1.3
			c0-0.5-0.2-1-0.5-1.4c-0.4-0.3-0.9-0.5-1.4-0.5c-0.5,0-1,0.1-1.4,0.3c-0.5,0.2-0.9,0.5-1.3,0.8l-0.9-1c0.3-0.3,0.6-0.5,1-0.7
			c0.4-0.2,0.8-0.4,1.2-0.5c0.5-0.1,0.9-0.2,1.4-0.2c0.6,0,1.3,0.1,1.9,0.4c0.5,0.2,0.9,0.6,1.2,1.1c0.3,0.5,0.4,1,0.4,1.6
			c0,0.6-0.1,1.2-0.4,1.7c-0.3,0.6-0.6,1.1-1,1.5c-0.5,0.6-1,1.1-1.6,1.6l-2.2,2.2v0.1h5.6V117.9z"/>
		<path class="st2" d="M167.3,117.9h-7.6v-1.2l3-3.1c0.6-0.6,1-1.1,1.4-1.5c0.3-0.4,0.6-0.8,0.9-1.3c0.2-0.4,0.3-0.9,0.3-1.3
			c0-0.5-0.2-1-0.5-1.4c-0.4-0.3-0.9-0.5-1.4-0.5c-0.5,0-1,0.1-1.4,0.3c-0.5,0.2-0.9,0.5-1.3,0.8l-0.8-1c0.3-0.3,0.6-0.5,1-0.7
			c0.4-0.2,0.8-0.4,1.2-0.5c0.5-0.1,0.9-0.2,1.4-0.2c0.6,0,1.3,0.1,1.9,0.4c0.5,0.2,0.9,0.6,1.2,1.1c0.3,0.5,0.4,1,0.4,1.6
			c0,0.6-0.1,1.2-0.4,1.7c-0.3,0.6-0.6,1.1-1,1.5c-0.4,0.5-1,1.1-1.6,1.6l-2.2,2.2v0.1h5.6L167.3,117.9z"/>
		<path class="st2" d="M176,109.1c0,0.5-0.1,0.9-0.3,1.3c-0.2,0.4-0.5,0.7-0.9,0.9c-0.4,0.3-0.8,0.4-1.2,0.5v0.1
			c0.8,0,1.5,0.4,2.1,0.9c0.5,0.5,0.7,1.2,0.7,1.8c0,0.6-0.2,1.2-0.5,1.8c-0.3,0.5-0.8,1-1.4,1.2c-0.8,0.3-1.6,0.5-2.5,0.4
			c-0.6,0-1.1,0-1.7-0.2c-0.5-0.1-1-0.3-1.5-0.5V116c1,0.5,2,0.7,3.1,0.8c0.8,0.1,1.5-0.1,2.1-0.6c0.4-0.4,0.7-1,0.6-1.6
			c0-0.4-0.1-0.8-0.4-1.1c-0.3-0.3-0.6-0.5-1-0.6c-0.6-0.1-1.1-0.2-1.7-0.2h-1.1v-1.3h1.1c0.5,0,1.1-0.1,1.6-0.2
			c0.8-0.3,1.3-1,1.2-1.8c0-0.5-0.2-0.9-0.5-1.2c-0.4-0.3-0.9-0.5-1.5-0.4c-0.4,0-0.7,0-1.1,0.1c-0.3,0.1-0.6,0.2-0.9,0.3
			c-0.3,0.1-0.5,0.3-0.8,0.5l-0.8-1.1c0.5-0.4,1-0.6,1.5-0.8c0.7-0.2,1.4-0.4,2.1-0.3c1-0.1,1.9,0.2,2.7,0.8
			C175.7,107.6,176,108.3,176,109.1z"/>
		<path class="st2" d="M42.3,168.1c-0.7,0-1.4-0.1-2.1-0.5c-0.6-0.3-1.1-0.8-1.4-1.5c-0.3-0.8-0.5-1.6-0.5-2.5
			c0-0.9,0.1-1.8,0.5-2.6c0.3-0.6,0.8-1.1,1.5-1.5c0.7-0.3,1.4-0.5,2.1-0.5c0.4,0,0.9,0,1.3,0.1c0.3,0.1,0.7,0.2,1,0.4l-0.5,1.3
			c-0.3-0.1-0.6-0.2-0.9-0.3c-0.3-0.1-0.7-0.1-1-0.1c-0.5,0-1,0.1-1.4,0.4c-0.4,0.3-0.7,0.6-0.8,1.1c-0.2,0.6-0.3,1.1-0.3,1.7
			c0,0.6,0.1,1.1,0.3,1.7c0.2,0.4,0.4,0.8,0.8,1c0.4,0.3,0.9,0.4,1.3,0.4c0.4,0,0.8,0,1.2-0.2c0.3-0.1,0.7-0.2,1-0.4v1.4
			c-0.3,0.2-0.7,0.3-1,0.4C43.1,168,42.7,168.1,42.3,168.1z"/>
		<path class="st2" d="M49.9,159.1c0.9-0.1,1.7,0.2,2.4,0.7c0.6,0.6,0.9,1.4,0.8,2.2v5.8H52l-0.3-1.2h-0.1c-0.2,0.3-0.5,0.5-0.8,0.8
			c-0.3,0.2-0.6,0.4-0.9,0.5c-0.4,0.1-0.8,0.2-1.2,0.2c-0.5,0-1-0.1-1.4-0.3c-0.4-0.2-0.8-0.5-1-0.8c-0.2-0.4-0.3-0.9-0.3-1.4
			c0-0.8,0.3-1.6,1-2c0.9-0.5,2-0.8,3.1-0.7l1.5-0.1v-0.5c0.1-0.5-0.1-1-0.5-1.4c-0.3-0.3-0.8-0.4-1.2-0.4c-0.4,0-0.9,0.1-1.3,0.2
			c-0.4,0.1-0.8,0.3-1.2,0.5l-0.5-1.1c0.4-0.2,0.9-0.4,1.4-0.5C48.8,159.2,49.4,159.1,49.9,159.1z M51.5,163.7l-1.2,0.1
			c-0.7,0-1.5,0.1-2.1,0.5c-0.4,0.3-0.6,0.7-0.6,1.2c0,0.4,0.1,0.8,0.4,1c0.3,0.2,0.7,0.3,1.1,0.3c0.6,0,1.2-0.2,1.7-0.6
			c0.5-0.5,0.7-1.1,0.7-1.8V163.7z"/>
		<path class="st2" d="M61.4,165.5c0,0.5-0.1,1-0.4,1.4c-0.3,0.4-0.7,0.7-1.2,0.9c-0.6,0.2-1.2,0.3-1.9,0.3c-0.5,0-1,0-1.6-0.1
			c-0.4-0.1-0.8-0.2-1.2-0.4v-1.4c0.4,0.2,0.9,0.4,1.3,0.5c0.5,0.1,1,0.2,1.5,0.2c0.5,0,1-0.1,1.5-0.3c0.3-0.2,0.5-0.5,0.5-0.9
			c0-0.2-0.1-0.4-0.2-0.6c-0.2-0.2-0.4-0.4-0.6-0.5c-0.4-0.2-0.8-0.4-1.3-0.6c-0.5-0.2-0.9-0.4-1.4-0.6c-0.4-0.2-0.7-0.5-0.9-0.8
			c-0.2-0.3-0.3-0.8-0.3-1.2c0-0.7,0.3-1.3,0.9-1.7c0.7-0.4,1.5-0.6,2.4-0.6c1,0,1.9,0.2,2.8,0.6l-0.5,1.3c-0.4-0.2-0.8-0.3-1.2-0.4
			c-0.4-0.1-0.8-0.2-1.2-0.2c-0.4,0-0.8,0.1-1.2,0.2c-0.3,0.1-0.4,0.4-0.4,0.7c0,0.2,0.1,0.4,0.2,0.6c0.2,0.2,0.4,0.4,0.7,0.5
			c0.3,0.1,0.7,0.3,1.3,0.5c0.5,0.2,0.9,0.4,1.4,0.6c0.3,0.2,0.7,0.5,0.9,0.8C61.3,164.7,61.4,165.1,61.4,165.5z"/>
		<path class="st2" d="M66.7,159.1c0.9-0.1,1.7,0.2,2.4,0.7c0.6,0.6,0.9,1.4,0.8,2.2v5.8h-1.1l-0.3-1.2h-0.1
			c-0.2,0.3-0.5,0.5-0.8,0.8c-0.3,0.2-0.6,0.4-0.9,0.5c-0.4,0.1-0.8,0.2-1.2,0.2c-0.5,0-1-0.1-1.4-0.3c-0.4-0.2-0.8-0.5-1-0.8
			c-0.2-0.4-0.4-0.9-0.3-1.4c0-0.8,0.3-1.6,1-2c0.9-0.5,2-0.8,3.1-0.7l1.5-0.1v-0.5c0.1-0.5-0.1-1-0.4-1.4c-0.4-0.3-0.8-0.4-1.2-0.4
			c-0.4,0-0.9,0.1-1.3,0.2c-0.4,0.1-0.8,0.3-1.2,0.5l-0.5-1.1c0.4-0.2,0.9-0.4,1.4-0.5C65.6,159.2,66.2,159.1,66.7,159.1z
			 M68.3,163.7l-1.2,0.1c-0.7,0-1.5,0.1-2.1,0.5c-0.4,0.3-0.6,0.7-0.6,1.2c0,0.4,0.1,0.7,0.4,1c0.3,0.2,0.7,0.3,1.1,0.3
			c0.6,0,1.2-0.2,1.7-0.6c0.5-0.5,0.7-1.1,0.7-1.8L68.3,163.7z"/>
		<path class="st2" d="M75.5,168.1c-0.9,0-1.9-0.4-2.5-1.1c-1.3-2-1.3-4.6,0-6.7c0.6-0.8,1.6-1.2,2.5-1.1c0.4,0,0.8,0.1,1.2,0.2
			c0.3,0.1,0.6,0.3,0.9,0.5c0.2,0.2,0.4,0.4,0.6,0.7h0.1c0-0.2,0-0.4-0.1-0.7c0-0.3,0-0.5,0-0.8v-3.3h1.5V168h-1.2l-0.3-1.2h-0.1
			c-0.2,0.3-0.4,0.5-0.6,0.7c-0.3,0.2-0.5,0.4-0.9,0.5C76.3,168.1,75.9,168.1,75.5,168.1z M75.9,166.8c0.7,0.1,1.4-0.2,1.8-0.7
			c0.4-0.7,0.6-1.4,0.5-2.2v-0.2c0-0.8-0.1-1.6-0.5-2.4c-0.4-0.6-1.1-0.9-1.8-0.8c-0.7,0-1.3,0.3-1.6,0.9c-0.4,0.7-0.6,1.5-0.6,2.4
			c0,0.8,0.1,1.6,0.6,2.3C74.6,166.5,75.2,166.8,75.9,166.8L75.9,166.8z"/>
		<path class="st2" d="M89.9,163.6c0,0.6-0.1,1.3-0.3,1.9c-0.2,0.5-0.4,1-0.8,1.4c-0.4,0.4-0.8,0.7-1.3,0.9
			c-0.5,0.2-1.1,0.3-1.7,0.3c-0.5,0-1.1-0.1-1.6-0.3c-0.5-0.2-0.9-0.5-1.3-0.9c-0.4-0.4-0.7-0.9-0.8-1.4c-0.4-1.4-0.4-2.9,0.2-4.3
			c0.3-0.6,0.8-1.2,1.4-1.5c0.7-0.4,1.4-0.5,2.2-0.5c0.7,0,1.5,0.2,2.1,0.5c0.6,0.4,1.1,0.9,1.4,1.5
			C89.8,161.9,89.9,162.8,89.9,163.6z M83.5,163.6c0,0.6,0.1,1.2,0.2,1.7c0.4,1.2,1.7,1.8,2.8,1.4c0.7-0.2,1.2-0.8,1.4-1.4
			c0.2-0.6,0.3-1.1,0.2-1.7c0-0.6-0.1-1.1-0.3-1.7c-0.1-0.4-0.4-0.8-0.8-1.1c-0.4-0.3-0.9-0.4-1.4-0.4c-0.7-0.1-1.4,0.2-1.8,0.8
			C83.6,162,83.4,162.8,83.5,163.6z"/>
		<path class="st2" d="M96.4,159.1c1.5-0.2,2.9,0.8,3.1,2.3c0,0.3,0,0.5,0,0.8v5.6h-1.5v-5.4c0-0.6-0.1-1.1-0.5-1.6
			c-0.4-0.4-0.9-0.6-1.4-0.5c-0.7-0.1-1.4,0.2-1.9,0.8c-0.4,0.7-0.6,1.5-0.5,2.3v4.4h-1.6v-8.6h1.2l0.2,1.2h0.1
			c0.2-0.3,0.4-0.6,0.7-0.8c0.3-0.2,0.6-0.4,0.9-0.4C95.6,159.2,96,159.1,96.4,159.1z"/>
		<path class="st2" d="M103.6,155.8v3c0,0.3,0,0.7,0,1s0,0.6,0,0.8h0.1c0.3-0.4,0.6-0.7,1-0.9c0.5-0.3,1.1-0.4,1.7-0.4
			c1,0,1.9,0.4,2.5,1.1c0.7,1,1.1,2.1,1,3.3c0,0.8-0.1,1.7-0.4,2.4c-0.2,0.6-0.7,1.1-1.2,1.5c-0.5,0.3-1.2,0.5-1.8,0.5
			c-0.6,0-1.1-0.1-1.6-0.4c-0.4-0.2-0.7-0.5-1-0.9h-0.1l-0.3,1.1h-1.2v-12.2H103.6z M105.9,160.4c-0.5,0-0.9,0.1-1.3,0.3
			c-0.4,0.2-0.6,0.6-0.7,1c-0.2,0.6-0.2,1.1-0.2,1.7v0.1c0,0.8,0.1,1.6,0.5,2.3c0.4,0.6,1.1,0.9,1.8,0.8c0.7,0,1.3-0.3,1.6-0.8
			c0.4-0.7,0.6-1.5,0.6-2.4c0.1-0.8-0.1-1.6-0.6-2.4C107.2,160.7,106.6,160.4,105.9,160.4z"/>
		<path class="st2" d="M119.5,163.6c0,0.6-0.1,1.3-0.3,1.9c-0.2,0.5-0.4,1-0.8,1.4c-0.4,0.4-0.8,0.7-1.3,0.9
			c-0.5,0.2-1.1,0.3-1.7,0.3c-0.6,0-1.1-0.1-1.6-0.3c-0.5-0.2-0.9-0.5-1.3-0.9c-0.4-0.4-0.7-0.9-0.8-1.4c-0.2-0.6-0.3-1.2-0.3-1.9
			c0-0.8,0.1-1.7,0.5-2.4c0.3-0.6,0.8-1.2,1.4-1.5c0.7-0.4,1.4-0.5,2.2-0.5c0.7,0,1.5,0.2,2.1,0.5c0.6,0.4,1.1,0.9,1.4,1.5
			C119.3,161.9,119.5,162.8,119.5,163.6z M113.1,163.6c0,0.6,0.1,1.2,0.2,1.7c0.1,0.4,0.4,0.8,0.8,1.1c0.8,0.5,1.9,0.5,2.7,0
			c0.4-0.3,0.6-0.7,0.8-1.1c0.2-0.6,0.3-1.1,0.2-1.7c0-0.6-0.1-1.1-0.2-1.7c-0.1-0.4-0.4-0.8-0.8-1.1c-0.4-0.3-0.9-0.4-1.4-0.4
			c-0.7-0.1-1.4,0.3-1.8,0.8C113.2,162,113,162.8,113.1,163.6z"/>
		<path class="st2" d="M127.3,165.5c0,0.5-0.1,1-0.4,1.4c-0.3,0.4-0.7,0.7-1.2,0.9c-0.6,0.2-1.2,0.3-1.9,0.3c-0.5,0-1,0-1.6-0.1
			c-0.4-0.1-0.8-0.2-1.2-0.4v-1.4c0.4,0.2,0.9,0.4,1.3,0.5c0.5,0.1,1,0.2,1.5,0.2c0.5,0,1-0.1,1.5-0.3c0.3-0.2,0.5-0.5,0.4-0.9
			c0-0.2-0.1-0.4-0.2-0.6c-0.2-0.2-0.4-0.4-0.6-0.5c-0.4-0.2-0.8-0.4-1.3-0.6c-0.5-0.2-0.9-0.4-1.4-0.6c-0.4-0.2-0.7-0.5-0.9-0.8
			c-0.2-0.3-0.3-0.8-0.3-1.2c0-0.7,0.3-1.3,0.9-1.7c0.7-0.4,1.5-0.6,2.4-0.6c1,0,1.9,0.2,2.8,0.6l-0.5,1.2c-0.4-0.2-0.8-0.3-1.2-0.4
			c-0.4-0.1-0.8-0.2-1.2-0.2c-0.4,0-0.8,0.1-1.2,0.2c-0.3,0.1-0.4,0.4-0.4,0.7c0,0.2,0.1,0.4,0.2,0.6c0.2,0.2,0.4,0.4,0.7,0.5
			c0.3,0.1,0.7,0.3,1.3,0.5c0.5,0.2,0.9,0.4,1.4,0.6c0.3,0.2,0.7,0.5,0.9,0.8C127.2,164.7,127.3,165.1,127.3,165.5z"/>
		<path class="st2" d="M132.8,168.1c-0.7,0-1.4-0.1-2.1-0.5c-0.6-0.3-1.1-0.8-1.4-1.5c-0.3-0.8-0.5-1.6-0.5-2.5
			c0-0.9,0.1-1.8,0.5-2.6c0.3-0.6,0.8-1.1,1.4-1.5c0.7-0.3,1.4-0.5,2.1-0.5c0.4,0,0.9,0,1.3,0.1c0.3,0.1,0.7,0.2,1,0.4l-0.5,1.3
			c-0.3-0.1-0.6-0.2-0.9-0.3c-0.3-0.1-0.6-0.1-0.9-0.1c-0.5,0-1,0.1-1.4,0.4c-0.4,0.3-0.7,0.6-0.8,1.1c-0.2,0.6-0.3,1.1-0.3,1.7
			c0,0.6,0.1,1.1,0.3,1.7c0.2,0.4,0.4,0.8,0.8,1c0.4,0.3,0.9,0.4,1.3,0.4c0.4,0,0.8,0,1.2-0.2c0.3-0.1,0.7-0.2,1-0.4v1.4
			c-0.3,0.2-0.7,0.3-1,0.4C133.7,168,133.2,168.1,132.8,168.1z"/>
		<path class="st2" d="M144.7,163.6c0,0.6-0.1,1.3-0.3,1.9c-0.2,0.5-0.4,1-0.8,1.4c-0.4,0.4-0.8,0.7-1.3,0.9
			c-0.5,0.2-1.1,0.3-1.7,0.3c-0.6,0-1.1-0.1-1.6-0.3c-0.5-0.2-0.9-0.5-1.3-0.9c-0.4-0.4-0.6-0.9-0.8-1.4c-0.2-0.6-0.3-1.2-0.3-1.9
			c0-0.8,0.1-1.7,0.5-2.4c0.3-0.6,0.8-1.2,1.4-1.5c0.7-0.4,1.4-0.5,2.1-0.5c0.7,0,1.5,0.2,2.1,0.5c0.6,0.4,1.1,0.9,1.4,1.5
			C144.5,161.9,144.7,162.8,144.7,163.6z M138.3,163.6c0,0.6,0.1,1.2,0.2,1.7c0.1,0.4,0.4,0.8,0.8,1.1c1,0.7,2.4,0.5,3.2-0.4
			c0.1-0.2,0.3-0.4,0.3-0.6c0.2-0.6,0.3-1.1,0.2-1.7c0-0.6-0.1-1.1-0.2-1.7c-0.1-0.4-0.4-0.8-0.8-1.1c-0.4-0.3-0.9-0.4-1.4-0.4
			c-0.7-0.1-1.4,0.3-1.8,0.8C138.4,162,138.2,162.8,138.3,163.6z"/>
		<path class="st2" d="M152.5,165.5c0,0.5-0.1,1-0.4,1.4c-0.3,0.4-0.7,0.7-1.2,0.9c-0.6,0.2-1.2,0.3-1.9,0.3c-0.5,0-1,0-1.6-0.1
			c-0.4-0.1-0.8-0.2-1.2-0.4v-1.4c0.4,0.2,0.9,0.4,1.3,0.5c0.5,0.1,1,0.2,1.5,0.2c0.5,0,1-0.1,1.5-0.3c0.3-0.2,0.5-0.5,0.4-0.9
			c0-0.2-0.1-0.4-0.2-0.6c-0.2-0.2-0.4-0.4-0.6-0.5c-0.4-0.2-0.8-0.4-1.3-0.6c-0.5-0.2-1-0.4-1.4-0.6c-0.4-0.2-0.7-0.5-0.9-0.8
			c-0.2-0.3-0.3-0.8-0.3-1.2c0-0.7,0.3-1.3,0.9-1.7c0.7-0.4,1.5-0.6,2.4-0.6c1,0,1.9,0.2,2.8,0.6l-0.5,1.2c-0.4-0.2-0.8-0.3-1.2-0.4
			c-0.4-0.1-0.8-0.2-1.2-0.2c-0.4,0-0.8,0.1-1.2,0.2c-0.3,0.1-0.4,0.4-0.4,0.7c0,0.2,0.1,0.4,0.2,0.6c0.2,0.2,0.4,0.4,0.7,0.5
			c0.3,0.1,0.7,0.3,1.3,0.5c0.5,0.2,0.9,0.4,1.4,0.6c0.3,0.2,0.7,0.5,0.9,0.8C152.4,164.7,152.5,165.1,152.5,165.5z"/>
		<path class="st2" d="M157.9,159.1c0.9-0.1,1.7,0.2,2.4,0.7c0.6,0.6,0.9,1.4,0.8,2.2v5.8h-1.1l-0.3-1.2h-0.1
			c-0.2,0.3-0.5,0.5-0.8,0.8c-0.3,0.2-0.6,0.4-0.9,0.5c-0.4,0.1-0.8,0.2-1.2,0.2c-0.5,0-1-0.1-1.4-0.3c-0.4-0.2-0.8-0.5-1-0.8
			c-0.2-0.4-0.4-0.9-0.4-1.4c0-0.8,0.3-1.6,1-2c0.9-0.5,2-0.8,3.1-0.7l1.5-0.1v-0.5c0.1-0.5-0.1-1-0.4-1.4c-0.4-0.3-0.8-0.4-1.2-0.4
			c-0.4,0-0.9,0.1-1.3,0.2c-0.4,0.1-0.8,0.3-1.2,0.5l-0.5-1.1c0.4-0.2,0.9-0.4,1.4-0.5C156.7,159.2,157.3,159.1,157.9,159.1z
			 M159.5,163.7l-1.2,0.1c-0.7,0-1.5,0.1-2.1,0.5c-0.4,0.3-0.6,0.7-0.6,1.2c0,0.4,0.1,0.7,0.4,1c0.3,0.2,0.7,0.3,1.1,0.3
			c0.6,0,1.2-0.2,1.7-0.6c0.5-0.5,0.7-1.1,0.7-1.8L159.5,163.7z"/>
		<path class="st2" d="M167.8,159.1h0.5c0.2,0,0.3,0,0.5,0.1l-0.2,1.5l-0.4-0.1h-0.5c-0.3,0-0.7,0.1-1,0.2c-0.3,0.1-0.6,0.3-0.8,0.5
			c-0.2,0.3-0.4,0.5-0.5,0.9c-0.1,0.4-0.2,0.8-0.2,1.2v4.6h-1.6v-8.6h1.3l0.2,1.6h0.1c0.2-0.3,0.4-0.6,0.6-0.9
			c0.2-0.3,0.5-0.5,0.9-0.6C167,159.2,167.4,159.1,167.8,159.1z"/>
		<path class="st2" d="M174.5,159.1h0.5c0.2,0,0.3,0,0.5,0.1l-0.2,1.5l-0.4-0.1h-0.5c-0.3,0-0.7,0.1-1,0.2c-0.3,0.1-0.6,0.3-0.8,0.5
			c-0.2,0.3-0.4,0.5-0.5,0.9c-0.1,0.4-0.2,0.8-0.2,1.2v4.6h-1.6v-8.6h1.3l0.2,1.6h0.1c0.2-0.3,0.4-0.6,0.6-0.9
			c0.3-0.3,0.6-0.5,0.9-0.6C173.7,159.2,174.1,159.1,174.5,159.1z"/>
		<path class="st2" d="M177.9,156c0.2,0,0.5,0.1,0.6,0.2c0.2,0.2,0.3,0.4,0.3,0.7c0,0.3-0.1,0.5-0.3,0.7c-0.2,0.1-0.4,0.2-0.6,0.2
			c-0.2,0-0.5-0.1-0.6-0.2c-0.2-0.2-0.3-0.4-0.2-0.7c0-0.3,0.1-0.5,0.3-0.7C177.4,156.1,177.6,156,177.9,156z M178.7,159.3v8.6h-1.6
			v-8.6L178.7,159.3z"/>
		<path class="st2" d="M184.6,159.1c0.9-0.1,1.7,0.2,2.4,0.7c0.6,0.6,0.9,1.4,0.8,2.2v5.8h-1.1l-0.3-1.2h-0.1
			c-0.2,0.3-0.5,0.5-0.8,0.8c-0.3,0.2-0.6,0.4-0.9,0.5c-0.4,0.1-0.8,0.2-1.2,0.2c-0.5,0-1-0.1-1.4-0.3c-0.4-0.2-0.8-0.5-1-0.8
			c-0.3-0.4-0.4-0.9-0.4-1.4c0-0.8,0.3-1.6,1-2c0.9-0.5,2-0.8,3.1-0.7l1.5-0.1v-0.5c0.1-0.5-0.1-1-0.4-1.4c-0.4-0.3-0.8-0.4-1.3-0.4
			c-0.4,0-0.9,0.1-1.3,0.2c-0.4,0.1-0.8,0.3-1.2,0.5l-0.5-1.1c0.4-0.2,0.9-0.4,1.4-0.5C183.5,159.2,184.1,159.1,184.6,159.1z
			 M186.2,163.7l-1.2,0.1c-0.7,0-1.5,0.1-2.1,0.5c-0.4,0.3-0.6,0.7-0.6,1.2c0,0.4,0.1,0.8,0.4,1c0.3,0.2,0.7,0.3,1.1,0.3
			c0.6,0,1.2-0.2,1.7-0.6c0.5-0.5,0.7-1.1,0.7-1.8L186.2,163.7z"/>
		<path class="st2" d="M202.6,162.2c0,0.5-0.1,1-0.2,1.4c-0.1,0.5-0.3,0.9-0.5,1.3c-0.2,0.4-0.5,0.7-0.9,0.9
			c-0.4,0.2-0.8,0.4-1.2,0.3c-0.4,0-0.8-0.1-1.1-0.4c-0.3-0.2-0.5-0.6-0.6-0.9H198c-0.2,0.4-0.5,0.7-0.9,0.9
			c-0.4,0.3-0.9,0.4-1.4,0.4c-0.8,0.1-1.5-0.2-2-0.8c-0.5-0.6-0.7-1.4-0.7-2.2c0-0.6,0.1-1.3,0.4-1.9c0.3-0.5,0.7-1,1.2-1.3
			c0.6-0.3,1.2-0.5,1.9-0.5c0.5,0,0.9,0,1.4,0.1c0.4,0.1,0.7,0.2,1.1,0.3l-0.2,3.2c0,0.2,0,0.3,0,0.4c0,0.1,0,0.2,0,0.2
			c0,0.4,0.1,0.8,0.3,1.1c0.2,0.2,0.4,0.3,0.6,0.3c0.3,0,0.6-0.1,0.8-0.4c0.2-0.3,0.4-0.7,0.5-1.1c0.1-0.5,0.2-1,0.2-1.5
			c0-0.9-0.2-1.7-0.6-2.5c-0.4-0.7-0.9-1.2-1.6-1.6c-0.7-0.4-1.5-0.6-2.4-0.5c-0.8,0-1.6,0.1-2.4,0.4c-0.7,0.3-1.3,0.7-1.7,1.2
			c-0.5,0.5-0.9,1.1-1.1,1.8c-0.3,0.7-0.4,1.5-0.4,2.3c0,0.9,0.2,1.8,0.6,2.6c0.4,0.7,0.9,1.3,1.6,1.7c0.8,0.4,1.7,0.6,2.6,0.6
			c0.6,0,1.2-0.1,1.9-0.2c0.6-0.1,1.1-0.3,1.6-0.5v1.1c-0.5,0.2-1,0.4-1.6,0.5c-0.6,0.1-1.3,0.2-1.9,0.2c-1.1,0-2.2-0.2-3.3-0.7
			c-0.9-0.4-1.6-1.1-2.1-2c-0.5-1-0.7-2.1-0.7-3.2c0-0.9,0.1-1.9,0.5-2.8c0.3-0.8,0.8-1.6,1.4-2.2c0.6-0.6,1.3-1.1,2.1-1.4
			c0.9-0.4,1.9-0.5,2.8-0.5c1,0,2.1,0.2,3,0.7c0.8,0.5,1.5,1.2,2,2C202.3,160.1,202.5,161.2,202.6,162.2z M194.4,163.2
			c0,0.5,0.1,1,0.4,1.5c0.3,0.3,0.7,0.5,1.1,0.5c0.5,0,1-0.2,1.3-0.7c0.3-0.5,0.5-1.1,0.5-1.7l0.1-2c-0.2,0-0.3-0.1-0.5-0.1
			c-0.2,0-0.4,0-0.6,0c-0.9-0.1-1.7,0.5-2,1.3C194.5,162.4,194.4,162.8,194.4,163.2L194.4,163.2z"/>
		<path class="st2" d="M207.2,171.8c-0.9,0.1-1.8-0.2-2.6-0.6c-0.6-0.4-1-1.1-0.9-1.8c0-0.5,0.2-1,0.5-1.4c0.4-0.4,0.9-0.7,1.4-0.8
			c-0.2-0.1-0.4-0.3-0.6-0.5c-0.2-0.2-0.2-0.5-0.2-0.7c0-0.3,0.1-0.6,0.3-0.8c0.2-0.3,0.5-0.5,0.8-0.7c-0.5-0.2-0.8-0.5-1.1-0.9
			c-0.3-0.5-0.4-1-0.4-1.5c0-0.6,0.1-1.1,0.4-1.6c0.3-0.4,0.7-0.8,1.1-1c0.6-0.2,1.2-0.4,1.8-0.3c0.2,0,0.3,0,0.5,0l0.5,0.1l0.4,0.1
			h3v0.9l-1.5,0.2c0.2,0.2,0.3,0.4,0.4,0.7c0.1,0.3,0.1,0.6,0.1,0.9c0,0.8-0.3,1.6-0.9,2.1c-0.7,0.5-1.6,0.8-2.5,0.8
			c-0.2,0-0.5,0-0.7-0.1c-0.2,0.1-0.4,0.3-0.5,0.4c-0.1,0.2-0.2,0.3-0.2,0.5c0,0.1,0,0.3,0.1,0.4c0.1,0.1,0.3,0.2,0.4,0.2
			c0.2,0.1,0.5,0.1,0.7,0.1h1.5c0.8,0,1.5,0.2,2.1,0.6c0.5,0.4,0.8,1.1,0.8,1.7c0,0.9-0.4,1.7-1.2,2.2
			C209.6,171.5,208.4,171.8,207.2,171.8z M207.3,170.6c0.6,0,1.1-0.1,1.7-0.2c0.4-0.1,0.7-0.3,1-0.6c0.2-0.2,0.3-0.6,0.3-0.9
			c0-0.3-0.1-0.5-0.2-0.7c-0.2-0.2-0.4-0.3-0.7-0.3c-0.4-0.1-0.7-0.1-1.1-0.1h-1.4c-0.3,0-0.6,0.1-0.9,0.2c-0.3,0.1-0.5,0.3-0.6,0.5
			c-0.2,0.2-0.2,0.5-0.2,0.8c0,0.4,0.2,0.8,0.6,1C206.1,170.5,206.7,170.6,207.3,170.6z M207.6,163.8c0.5,0,0.9-0.1,1.3-0.5
			c0.3-0.4,0.5-0.8,0.4-1.3c0-0.5-0.1-1-0.4-1.4c-0.3-0.3-0.8-0.5-1.3-0.5c-0.5,0-0.9,0.1-1.3,0.5c-0.3,0.4-0.5,0.9-0.4,1.4
			c0,0.5,0.1,0.9,0.4,1.3C206.7,163.7,207.1,163.8,207.6,163.8L207.6,163.8z"/>
		<path class="st2" d="M223.1,159.1c0.8-0.1,1.6,0.2,2.2,0.8c0.5,0.7,0.8,1.5,0.7,2.4v5.6h-1.6v-5.4c0-0.5-0.1-1-0.4-1.5
			c-0.3-0.4-0.8-0.5-1.2-0.5c-0.6-0.1-1.3,0.2-1.7,0.7c-0.4,0.6-0.6,1.3-0.5,2.1v4.7H219v-5.4c0-0.4-0.1-0.8-0.2-1.1
			c-0.1-0.3-0.3-0.5-0.6-0.7c-0.3-0.2-0.6-0.2-0.9-0.2c-0.5,0-0.9,0.1-1.3,0.4c-0.3,0.3-0.6,0.6-0.7,1c-0.2,0.5-0.2,1.1-0.2,1.7v4.4
			h-1.6v-8.6h1.2l0.2,1.2h0.1c0.2-0.3,0.4-0.5,0.7-0.7c0.3-0.2,0.6-0.4,0.9-0.4c0.3-0.1,0.7-0.2,1-0.2c0.6,0,1.1,0.1,1.6,0.4
			c0.4,0.2,0.8,0.6,1,1.1h0.1c0.3-0.5,0.7-0.9,1.1-1.1C222,159.3,222.5,159.1,223.1,159.1z"/>
		<path class="st2" d="M231.9,159.1c0.9-0.1,1.7,0.2,2.4,0.7c0.6,0.6,0.9,1.4,0.8,2.2v5.8h-1.1l-0.3-1.2h-0.1
			c-0.2,0.3-0.5,0.5-0.8,0.8c-0.3,0.2-0.6,0.4-0.9,0.5c-0.4,0.1-0.8,0.2-1.2,0.2c-0.5,0-1-0.1-1.4-0.3c-0.4-0.2-0.7-0.5-0.9-0.8
			c-0.2-0.4-0.4-0.9-0.4-1.4c0-0.8,0.3-1.6,1-2c0.9-0.5,2-0.8,3.1-0.7l1.5-0.1v-0.5c0.1-0.5-0.1-1-0.4-1.4c-0.4-0.3-0.8-0.4-1.3-0.4
			c-0.4,0-0.9,0.1-1.3,0.2c-0.4,0.1-0.8,0.3-1.2,0.5l-0.5-1.1c0.4-0.2,0.9-0.4,1.4-0.5C230.8,159.2,231.3,159.1,231.9,159.1z
			 M233.5,163.7l-1.2,0.1c-0.7,0-1.5,0.1-2.1,0.5c-0.4,0.3-0.6,0.7-0.6,1.2c0,0.4,0.1,0.8,0.4,1c0.3,0.2,0.7,0.3,1.1,0.3
			c0.6,0,1.2-0.2,1.7-0.6c0.5-0.5,0.7-1.1,0.7-1.8L233.5,163.7z"/>
		<path class="st2" d="M238.5,156c0.2,0,0.5,0.1,0.6,0.2c0.2,0.2,0.3,0.4,0.3,0.7c0,0.3-0.1,0.5-0.3,0.7c-0.2,0.1-0.4,0.2-0.6,0.2
			c-0.2,0-0.5-0.1-0.6-0.2c-0.2-0.2-0.3-0.5-0.3-0.7c0-0.3,0.1-0.5,0.3-0.7C238,156.1,238.2,156,238.5,156z M239.2,159.3v8.6h-1.6
			v-8.6L239.2,159.3z"/>
		<path class="st2" d="M243.5,167.9h-1.6v-12.2h1.6V167.9z"/>
		<path class="st2" d="M245.9,167c0-0.3,0.1-0.6,0.3-0.8c0.2-0.2,0.5-0.3,0.7-0.2c0.3,0,0.5,0.1,0.7,0.2c0.2,0.2,0.3,0.5,0.3,0.8
			c0.1,0.5-0.3,1-0.9,1.1c0,0-0.1,0-0.1,0c-0.3,0-0.5-0.1-0.7-0.3C246,167.6,245.9,167.3,245.9,167z"/>
		<path class="st2" d="M253.9,168.1c-0.7,0-1.4-0.1-2.1-0.5c-0.6-0.3-1.1-0.8-1.4-1.5c-0.3-0.8-0.5-1.6-0.5-2.5
			c0-0.9,0.1-1.8,0.5-2.6c0.3-0.6,0.8-1.1,1.4-1.5c0.7-0.3,1.4-0.5,2.1-0.5c0.4,0,0.9,0,1.3,0.1c0.3,0.1,0.7,0.2,1,0.4l-0.5,1.3
			c-0.3-0.1-0.6-0.2-0.9-0.3c-0.3-0.1-0.6-0.1-0.9-0.1c-0.5,0-1,0.1-1.4,0.4c-0.4,0.3-0.7,0.6-0.8,1.1c-0.2,0.6-0.3,1.1-0.3,1.7
			c0,0.6,0.1,1.1,0.3,1.7c0.2,0.4,0.4,0.8,0.8,1c0.4,0.3,0.9,0.4,1.3,0.4c0.4,0,0.8,0,1.2-0.2c0.3-0.1,0.7-0.2,1-0.4v1.4
			c-0.3,0.2-0.7,0.3-1,0.4C254.8,168,254.4,168.1,253.9,168.1z"/>
		<path class="st2" d="M265.8,163.6c0,0.6-0.1,1.3-0.3,1.9c-0.3,1-1.1,1.9-2.1,2.3c-0.5,0.2-1.1,0.3-1.7,0.3c-0.6,0-1.1-0.1-1.6-0.3
			c-0.5-0.2-0.9-0.5-1.3-0.9c-0.4-0.4-0.6-0.9-0.8-1.4c-0.2-0.6-0.3-1.2-0.3-1.9c0-0.8,0.1-1.7,0.5-2.4c0.3-0.6,0.8-1.2,1.4-1.5
			c0.7-0.4,1.4-0.5,2.1-0.5c0.7,0,1.5,0.2,2.1,0.5c0.6,0.4,1.1,0.9,1.4,1.5C265.6,161.9,265.8,162.8,265.8,163.6z M259.4,163.6
			c0,0.6,0.1,1.2,0.2,1.7c0.1,0.4,0.4,0.8,0.8,1.1c0.4,0.3,0.9,0.4,1.4,0.4c1,0.1,1.8-0.6,2.1-1.5c0.2-0.6,0.3-1.1,0.2-1.7
			c0-0.6-0.1-1.1-0.2-1.7c-0.1-0.4-0.4-0.8-0.8-1.1c-0.4-0.3-0.9-0.4-1.4-0.4c-0.7-0.1-1.4,0.3-1.8,0.8
			C259.5,162,259.3,162.8,259.4,163.6z"/>
		<path class="st2" d="M277.5,159.1c0.8-0.1,1.6,0.2,2.2,0.8c0.5,0.7,0.8,1.5,0.7,2.4v5.6h-1.6v-5.4c0-0.5-0.1-1.1-0.4-1.5
			c-0.3-0.4-0.8-0.5-1.2-0.5c-0.6-0.1-1.3,0.2-1.7,0.7c-0.4,0.6-0.6,1.3-0.5,2.1v4.7h-1.6v-5.4c0-0.4-0.1-0.8-0.2-1.1
			c-0.1-0.3-0.3-0.5-0.5-0.7c-0.3-0.2-0.6-0.2-0.9-0.2c-0.5,0-0.9,0.1-1.3,0.4c-0.3,0.2-0.6,0.6-0.7,1c-0.2,0.5-0.2,1.1-0.2,1.7v4.4
			H268v-8.6h1.2l0.2,1.2h0.1c0.2-0.3,0.4-0.5,0.7-0.7c0.3-0.2,0.6-0.4,0.9-0.4c0.3-0.1,0.7-0.2,1-0.2c0.6,0,1.1,0.1,1.6,0.4
			c0.4,0.2,0.8,0.6,1,1.1h0.1c0.3-0.5,0.7-0.8,1.1-1.1C276.4,159.3,277,159.1,277.5,159.1z"/>
	</g>
</g>
<g>
	
		<ellipse transform="matrix(0.7071 -0.7071 0.7071 0.7071 -75.2666 41.8481)" class="st0" cx="12.9" cy="111.8" rx="12.1" ry="12.1"/>
	<path class="st1" d="M17.4,105c-2.7-1.9-6.5-1.7-9,0.4c-2.8,2.3-3.5,6.4-1.7,9.5l-1.1,3.9l4-1c3.1,1.7,6.9,1,9.2-1.6
		C21.7,112.8,21.1,107.6,17.4,105z M9.7,111c-0.6-1-0.6-2.1,0.2-2.9c0.1-0.1,0.3-0.3,0.5-0.3c0.2,0,0.4,0,0.6,0
		c0.1,0,0.2,0.2,0.2,0.3l0.6,1.4c0.1,0.2,0.1,0.3,0,0.4c-0.1,0.2-0.3,0.4-0.5,0.6c-0.1,0.1-0.1,0.2,0,0.4c0.6,1,1.5,1.8,2.6,2.2
		c0.2,0.1,0.3,0,0.4-0.1l0.6-0.8c0.1-0.1,0.2-0.1,0.4,0l1.6,0.8c0.2,0.2,0,0.9-0.1,1.1c-0.3,0.4-0.7,0.6-1.2,0.7
		c-0.4,0.1-0.8,0-1.2-0.1c-0.4-0.1-0.8-0.3-1.2-0.5C11.7,113.6,10.5,112.2,9.7,111z"/>
</g>
<g>
	<g>
		<circle class="st0" cx="12.9" cy="162.5" r="12.1"/>
	</g>
	<g id="FSnNVE.tif_00000107586318885434466810000016850207228074443177_">
		<g>
			<path class="st1" d="M5.7,166.6l0-8.1l4.4,4l-4.3,4.2C5.7,166.7,5.7,166.7,5.7,166.6z"/>
			<path class="st1" d="M19.5,157.5l-6.6,6.4l-6.8-6.3c0.2-0.1,0.3-0.2,0.5-0.2l12.5,0C19.2,157.4,19.4,157.5,19.5,157.5z"/>
			<path class="st1" d="M6.4,167.4l4.4-4.2l1.8,1.6c0.2,0.2,0.5,0.2,0.7,0l1.8-1.7l4.5,4.2c-0.1,0.1-0.3,0.1-0.4,0.1l-12.2,0
				C6.6,167.5,6.5,167.5,6.4,167.4z"/>
			<polygon class="st1" points="20,166.3 19.9,166.6 15.6,162.5 19.9,158.4 20,158.6 			"/>
		</g>
	</g>
</g>
</svg>
